<svg xmlns="http://www.w3.org/2000/svg" xmlns:xlink="http://www.w3.org/1999/xlink" id="Capa_1" x="0px" y="0px" viewBox="0 0 228.2 37.2" style="enable-background:new 0 0 228.2 37.2;" xml:space="preserve"><style type="text/css">	.st0{fill:#FFFFFF;}	.st1{enable-background:new    ;}</style><g id="Grupo_784" transform="translate(548 766.926)">	<path id="Trazado_1049" class="st0" d="M-529.2-766.9l-18.8,17.2v20h38v-19.9L-529.2-766.9z M-514.3-732.4h-29.2v-15.3l14.4-13.2  l14.8,13.3L-514.3-732.4L-514.3-732.4z"/>	<rect id="Rectángulo_1501" x="-548" y="-734.3" class="st0" width="38" height="3.9"/>	<g class="st1">		<path class="st0" d="M-476.2-738l0-10.1l-4.9,8.3h-1.8l-4.9-8.1v9.9h-3.6v-16.8h3.2l6.3,10.4l6.2-10.4h3.2l0,16.8H-476.2z"/>		<path class="st0" d="M-466.8-754.8h3.9v16.8h-3.9V-754.8z"/>		<path class="st0" d="M-441.7-754.8v16.8h-3.2l-8.4-10.2v10.2h-3.8v-16.8h3.2l8.4,10.2v-10.2H-441.7z"/>		<path class="st0" d="M-432.4-751.6h-5.4v-3.2h14.6v3.2h-5.4v13.6h-3.9V-751.6z"/>		<path class="st0" d="M-411.5-744v6h-3.9v-6l-6.5-10.8h4.1l4.5,7.5l4.5-7.5h3.8L-411.5-744z"/>		<path class="st0" d="M-377.6-754.8v16.8h-3.9v-6.9h-7.6v6.9h-3.9v-16.8h3.9v6.6h7.6v-6.6H-377.6z"/>		<path class="st0" d="M-372.8-746.4c0-5,3.9-8.7,9.2-8.7c5.3,0,9.2,3.7,9.2,8.7c0,5-3.9,8.7-9.2,8.7   C-369-737.7-372.8-741.4-372.8-746.4z M-358.4-746.4c0-3.2-2.3-5.4-5.3-5.4c-3,0-5.3,2.2-5.3,5.4s2.3,5.4,5.3,5.4   C-360.7-741-358.4-743.2-358.4-746.4z"/>		<path class="st0" d="M-351.1-739.7l1.3-2.9c1.4,1,3.5,1.8,5.5,1.8c2.3,0,3.2-0.8,3.2-1.8c0-3.1-9.8-1-9.8-7.2   c0-2.9,2.3-5.2,7.1-5.2c2.1,0,4.3,0.5,5.8,1.5l-1.2,3c-1.6-0.9-3.2-1.3-4.7-1.3c-2.3,0-3.2,0.9-3.2,1.9c0,3.1,9.8,1,9.8,7.1   c0,2.8-2.3,5.2-7.1,5.2C-346.9-737.7-349.6-738.5-351.1-739.7z"/>		<path class="st0" d="M-329.4-751.6h-5.4v-3.2h14.6v3.2h-5.4v13.6h-3.9V-751.6z"/>	</g></g></svg>